<svg width="40" height="40" viewBox="0 0 40 40" fill="none" xmlns="http://www.w3.org/2000/svg">
<path d="M30 14C30 19.2467 25.5228 23.5 20 23.5C14.4772 23.5 10 19.2467 10 14C10 8.75329 14.4772 4.5 20 4.5C25.5228 4.5 30 8.75329 30 14Z" fill="#0EAD98"/>
<path fill-rule="evenodd" clip-rule="evenodd" d="M19.9996 21.5C17.2071 21.5 14.6904 21.9738 12.9221 22.7319L12.9037 22.7107C7.62766 24.3977 4 28.6736 4 32.7293C4 36.4236 36 36.4236 36 32.7293C36 28.6736 32.3723 24.4004 27.0963 22.7134L27.0794 22.7329C25.3109 21.9742 22.7933 21.5 19.9996 21.5ZM28.7645 26.8286L27.9322 25.1428C27.8975 25.0711 27.8432 25.0105 27.7756 24.9682C27.708 24.9258 27.6298 24.9033 27.5501 24.9033C27.4703 24.9033 27.3922 24.9258 27.3246 24.9682C27.257 25.0105 27.2027 25.0711 27.1679 25.1428L26.3336 26.8286C26.3032 26.8906 26.2581 26.9444 26.2022 26.9851C26.1464 27.0258 26.0814 27.0522 26.013 27.0621L24.1532 27.3317C24.0746 27.3431 24.0007 27.3764 23.94 27.4277C23.8793 27.479 23.8343 27.5463 23.8099 27.6219C23.7856 27.6976 23.783 27.7785 23.8024 27.8556C23.8218 27.9326 23.8624 28.0027 23.9197 28.0578L25.2657 29.3677C25.3151 29.4157 25.3522 29.4749 25.3737 29.5404C25.3951 29.6059 25.4003 29.6756 25.3888 29.7435L25.0703 31.5969C25.0562 31.6754 25.0644 31.7564 25.0941 31.8304C25.1237 31.9045 25.1737 31.9687 25.2382 32.0156C25.3027 32.0626 25.3791 32.0905 25.4587 32.096C25.5382 32.1016 25.6178 32.0846 25.6882 32.047L27.3526 31.1723C27.4135 31.1403 27.4813 31.1236 27.5501 31.1236C27.6189 31.1236 27.6866 31.1403 27.7475 31.1723L29.412 32.0449C29.4822 32.0823 29.5615 32.0992 29.6408 32.0937C29.7202 32.0882 29.7964 32.0605 29.8608 32.0139C29.9252 31.9672 29.9752 31.9033 30.0051 31.8296C30.0349 31.7559 30.0435 31.6753 30.0298 31.5969L29.7135 29.7478C29.702 29.6798 29.7072 29.6101 29.7286 29.5447C29.7501 29.4792 29.7871 29.4199 29.8366 29.372L31.1826 28.0578C31.2399 28.0026 31.2805 27.9323 31.2998 27.8551C31.3191 27.7779 31.3163 27.6968 31.2917 27.6211C31.2671 27.5454 31.2218 27.4781 31.1608 27.427C31.0999 27.3758 31.0258 27.3428 30.947 27.3317L29.085 27.0621C29.0166 27.0522 28.9517 27.0258 28.8958 26.9851C28.8399 26.9444 28.7949 26.8906 28.7645 26.8286Z" fill="#B7EAE3"/>
<path d="M25.2114 22.1095C23.6937 22.9916 21.9093 23.5 19.9999 23.5C18.0903 23.5 16.3058 22.9915 14.7881 22.1094C16.2929 21.7236 18.0811 21.5 19.9994 21.5C21.918 21.5 23.7064 21.7237 25.2114 22.1095Z" fill="#13A38D"/>
</svg>
