<svg width="24" height="24" viewBox="0 0 24 24" fill="none" xmlns="http://www.w3.org/2000/svg">
<path d="M16.5938 0H7.40625C2.7 0 0 2.7 0 7.40625V16.5938C0 21.3 2.7 24 7.40625 24H16.5938C21.3 24 24 21.3 24 16.5938V7.40625C24 2.7 21.3 0 16.5938 0ZM15.3062 8.94687L16.6688 7.58438C16.9375 7.31563 17.375 7.31563 17.6406 7.58438C17.9094 7.85313 17.9094 8.29062 17.6406 8.55625L16.2781 9.91875C16.0094 10.1875 15.5719 10.1875 15.3062 9.91875C15.0375 9.65 15.0375 9.2125 15.3062 8.94687ZM13.7188 16.2375C13.7188 17.3375 12.475 17.9719 11.5844 17.3281L8.45 15.0625H5.9375C5.40625 15.0625 4.97188 14.6281 4.97188 14.0969V9.90312C4.97188 9.37187 5.40625 8.9375 5.9375 8.9375H8.45L11.5844 6.67188C12.475 6.02812 13.7188 6.66562 13.7188 7.7625V16.2375ZM17.6406 16.4156C17.3719 16.6844 16.9344 16.6844 16.6688 16.4156L15.3062 15.0531C15.0375 14.7844 15.0375 14.3469 15.3062 14.0812C15.575 13.8125 16.0125 13.8125 16.2781 14.0812L17.6406 15.4438C17.9094 15.7125 17.9094 16.15 17.6406 16.4156ZM18.3438 12.6875H16.4156C16.0375 12.6875 15.7281 12.3781 15.7281 12C15.7281 11.6219 16.0375 11.3125 16.4156 11.3125H18.3438C18.7219 11.3125 19.0312 11.6219 19.0312 12C19.0312 12.3781 18.7219 12.6875 18.3438 12.6875Z" fill="#0EAD98"/>
</svg>
