<svg width="32" height="32" viewBox="0 0 32 32" fill="none" xmlns="http://www.w3.org/2000/svg">
<g clip-path="url(#clip0_57089_14208)">
<path d="M16 32C24.8389 32 32 24.8389 32 16C32 7.16114 24.8389 0 16 0C7.16114 0 0 7.16114 0 16C0 24.8389 7.16114 32 16 32Z" fill="#0EAD98"/>
<path d="M24.2964 19.291V19.29L20.6895 15.9858L24.2964 12.3778V19.291ZM18.2098 18.4645L20.154 16.5202L24.2964 20.3152V20.9739C24.2964 21.8069 23.6186 22.4847 22.7856 22.4847H9.18655C8.35361 22.4847 7.67578 21.8069 7.67578 20.9729V20.3354L11.8278 16.5298L13.7624 18.4655C14.3563 19.0594 15.1468 19.3867 15.9861 19.3867C16.3991 19.3877 16.8081 19.3068 17.1896 19.1487C17.5711 18.9906 17.9175 18.7584 18.2087 18.4655" fill="white"/>
<path d="M22.8164 9.51465C23.6483 9.51465 24.3283 10.1925 24.3283 11.0254V11.341L17.7072 17.9631C17.2568 18.4135 16.6565 18.6622 16.018 18.6622C15.3805 18.6622 14.7802 18.4135 14.3287 17.9631L7.70872 11.341V11.0254C7.70872 10.1925 8.38548 9.51465 9.21736 9.51465H22.8164ZM7.67578 12.3779L11.2923 15.9955L7.67578 19.3102V12.3779Z" fill="white"/>
</g>
<defs>
<clipPath id="clip0_57089_14208">
<rect width="32" height="32" fill="white"/>
</clipPath>
</defs>
</svg>
