<svg width="32" height="32" viewBox="0 0 32 32" fill="none" xmlns="http://www.w3.org/2000/svg">
<g clip-path="url(#clip0_57089_14213)">
<circle cx="16" cy="16" r="16" fill="#ED622B"/>
<path d="M25.4426 15.5183C25.4426 14.1744 24.3867 13.1185 23.0428 13.1185C22.4669 13.1185 21.8909 13.3105 21.5069 13.6945C20.0671 12.8305 18.3392 12.2546 16.3233 12.1586L17.3793 8.31888L20.643 9.27881C20.643 9.53092 20.6927 9.78057 20.7892 10.0135C20.8856 10.2464 21.027 10.4581 21.2053 10.6363C21.3836 10.8146 21.5952 10.956 21.8282 11.0525C22.0611 11.149 22.3107 11.1987 22.5629 11.1987C22.815 11.1987 23.0646 11.149 23.2976 11.0525C23.5305 10.956 23.7421 10.8146 23.9204 10.6363C24.0987 10.4581 24.2401 10.2464 24.3366 10.0135C24.4331 9.78057 24.4827 9.53092 24.4827 9.27881C24.4827 8.76963 24.2804 8.28131 23.9204 7.92127C23.5604 7.56122 23.072 7.35895 22.5629 7.35895C21.8909 7.35895 21.219 7.74293 20.931 8.31888L17.0913 7.35895C16.8033 7.26296 16.6113 7.45495 16.5153 7.74292L15.3634 12.1586C13.4436 12.2546 11.6197 12.8305 10.1798 13.6945C9.79586 13.3105 9.21991 13.1185 8.64395 13.1185C7.30006 13.1185 6.24414 14.1744 6.24414 15.5183C6.24414 16.3823 6.62811 17.0542 7.30006 17.5342L7.20407 18.3981C7.20407 21.8538 11.0438 24.6376 15.8434 24.6376C20.643 24.6376 24.4827 21.8538 24.4827 18.3981L24.3867 17.5342C25.0587 17.0542 25.4426 16.3823 25.4426 15.5183ZM12.9636 15.8063C13.6356 15.8063 14.1155 16.3823 14.1155 16.9582C14.1155 17.5342 13.6356 18.1101 12.9636 18.1101C12.2917 18.1101 11.8117 17.6302 11.8117 16.9582C11.8117 16.2863 12.2917 15.8063 12.9636 15.8063ZM19.4911 20.9899C17.7632 22.0458 13.9235 22.0458 12.1957 20.9899C12.0037 20.7979 11.9077 20.5099 12.0997 20.3179C12.2917 20.126 12.5796 20.03 12.7716 20.222C13.9235 21.0859 17.7632 21.0859 18.9151 20.222C19.1071 20.03 19.3951 20.126 19.5871 20.3179C19.7791 20.5099 19.6831 20.7979 19.4911 20.9899ZM18.7232 18.1101C18.0512 18.1101 17.5713 17.5342 17.5713 16.9582C17.5713 16.2863 18.1472 15.8063 18.7232 15.8063C19.3951 15.8063 19.8751 16.3823 19.8751 16.9582C19.8751 17.6302 19.3951 18.1101 18.7232 18.1101Z" fill="white"/>
</g>
<defs>
<clipPath id="clip0_57089_14213">
<rect width="32" height="32" fill="white"/>
</clipPath>
</defs>
</svg>
