<svg width="32" height="32" viewBox="0 0 32 32" fill="none" xmlns="http://www.w3.org/2000/svg">
<g clip-path="url(#clip0_57095_14275)">
<circle cx="16" cy="16" r="15" fill="white"/>
<path d="M10.3619 16.8374C10.3619 18.0619 11.2571 19.0589 12.3435 19.0589C13.4472 19.0589 14.3251 18.0619 14.3251 16.8373C14.3425 15.6216 13.4559 14.6159 12.3435 14.6159C11.2397 14.6159 10.3619 15.613 10.3619 16.8374Z" fill="black"/>
<path d="M17.6886 16.8374C17.6886 18.0619 18.5838 19.0589 19.6703 19.0589C20.7828 19.0589 21.6519 18.0619 21.6519 16.8373C21.6693 15.6216 20.7828 14.6159 19.6703 14.6159C18.5665 14.6159 17.6886 15.613 17.6886 16.8374Z" fill="black"/>
<path d="M16 32C24.8366 32 32 24.8366 32 16C32 7.16344 24.8366 0 16 0C7.16344 0 0 7.16344 0 16C0 24.8366 7.16344 32 16 32ZM23.6414 8.99223C23.6537 8.9973 23.6639 9.00661 23.67 9.01848C26.1601 12.6796 27.3899 16.8094 26.93 21.5638C26.9291 21.5738 26.9261 21.5835 26.9212 21.5922C26.9162 21.601 26.9095 21.6085 26.9013 21.6145C25.2347 22.8488 23.3697 23.7896 21.3865 24.3964C21.3725 24.4007 21.3575 24.4005 21.3436 24.3958C21.3297 24.3911 21.3177 24.3821 21.3092 24.3702C20.8897 23.7884 20.5135 23.1765 20.1836 22.5396C20.1791 22.5308 20.1765 22.5212 20.1759 22.5113C20.1754 22.5014 20.1769 22.4915 20.1805 22.4823C20.184 22.473 20.1895 22.4647 20.1965 22.4577C20.2035 22.4507 20.2119 22.4452 20.2211 22.4417C20.8168 22.2178 21.3924 21.9439 21.942 21.6231C21.952 21.6171 21.9603 21.6088 21.9663 21.5989C21.9723 21.5889 21.9757 21.5777 21.9763 21.5661C21.9769 21.5545 21.9747 21.543 21.9697 21.5325C21.9648 21.5219 21.9574 21.5128 21.9481 21.5059C21.8317 21.4192 21.7175 21.3297 21.6056 21.2374C21.5957 21.2292 21.5836 21.2241 21.5708 21.2225C21.558 21.221 21.5451 21.2231 21.5335 21.2286C17.9676 22.8755 14.0608 22.8755 10.4522 21.2286C10.4406 21.2234 10.4278 21.2216 10.4152 21.2233C10.4026 21.225 10.3908 21.2302 10.381 21.2382C10.2692 21.3301 10.1553 21.4193 10.0394 21.5059C10.0302 21.5129 10.0228 21.5221 10.0179 21.5326C10.0131 21.5432 10.0109 21.5547 10.0116 21.5663C10.0123 21.5779 10.0158 21.5892 10.0219 21.5991C10.0279 21.609 10.0363 21.6172 10.0463 21.6231C10.5971 21.9412 11.1723 22.2153 11.7664 22.4426C11.7756 22.446 11.7841 22.4513 11.7911 22.4582C11.7982 22.4651 11.8037 22.4734 11.8073 22.4825C11.8109 22.4917 11.8125 22.5015 11.8121 22.5114C11.8116 22.5212 11.8091 22.5308 11.8046 22.5396C11.4801 23.1801 11.1034 23.7927 10.6782 24.3712C10.6694 24.3828 10.6573 24.3915 10.6435 24.396C10.6297 24.4005 10.6148 24.4007 10.6008 24.3966C8.62123 23.7877 6.75943 22.8469 5.0949 21.6145C5.08691 21.6082 5.08025 21.6005 5.07532 21.5916C5.07039 21.5827 5.0673 21.573 5.06622 21.5629C4.68207 17.4505 5.46514 13.2865 8.32373 9.01762C8.33072 9.00631 8.34104 8.99746 8.35328 8.99227C9.78271 8.33578 11.2915 7.86802 12.8416 7.60076C12.8556 7.59854 12.87 7.60061 12.8829 7.6067C12.8958 7.61278 12.9065 7.62261 12.9137 7.63488C13.1239 8.00665 13.3134 8.38973 13.4813 8.78238C15.152 8.52876 16.8515 8.52876 18.5223 8.78238C18.6891 8.39073 18.8756 8.00774 19.081 7.63488C19.0879 7.62233 19.0986 7.61228 19.1116 7.60615C19.1245 7.60003 19.139 7.59814 19.1531 7.60076C20.7031 7.86858 22.2117 8.33631 23.6414 8.99223Z" fill="black"/>
</g>
<defs>
<clipPath id="clip0_57095_14275">
<rect width="32" height="32" fill="white"/>
</clipPath>
</defs>
</svg>
