<svg width="32" height="32" viewBox="0 0 32 32" fill="none" xmlns="http://www.w3.org/2000/svg">
<g clip-path="url(#clip0_57089_14223)">
<circle cx="16" cy="16" r="16" fill="#4FAAF7"/>
<path d="M23.1483 12.6958C23.1547 12.859 23.1568 13.0222 23.1568 13.1855C23.1568 18.1355 19.6747 23.85 13.3072 23.85C11.3512 23.85 9.53242 23.2266 8 22.1653C8.27088 22.195 8.54599 22.2173 8.82532 22.2173C10.4471 22.2173 11.9408 21.6161 13.1257 20.6068C11.6108 20.5845 10.3317 19.4936 9.89056 18.0093C10.1023 18.0539 10.3204 18.0762 10.5435 18.0762C10.858 18.0762 11.1633 18.0317 11.456 17.9427C9.87084 17.6013 8.67686 16.0874 8.67686 14.2692C8.67686 14.2469 8.67686 14.2394 8.67686 14.2246C9.14404 14.4992 9.67876 14.6698 10.2466 14.6921C9.31642 14.0167 8.70499 12.8664 8.70499 11.5677C8.70499 10.885 8.87526 10.2393 9.17499 9.6827C10.8819 11.9536 13.4338 13.4453 16.3108 13.6011C16.2517 13.3266 16.2215 13.0372 16.2215 12.7478C16.2215 10.6772 17.7715 9 19.6838 9C20.6794 9 21.5786 9.45276 22.2097 10.18C22.9999 10.0168 23.74 9.70511 24.4099 9.27467C24.1502 10.1504 23.6021 10.8849 22.8859 11.3451C23.5867 11.256 24.2551 11.0558 24.8749 10.7589C24.4099 11.5085 23.8245 12.1689 23.1483 12.6958Z" fill="white"/>
</g>
<defs>
<clipPath id="clip0_57089_14223">
<rect width="32" height="32" fill="white"/>
</clipPath>
</defs>
</svg>
