<svg width="32" height="32" viewBox="0 0 32 32" fill="none" xmlns="http://www.w3.org/2000/svg">
<g clip-path="url(#clip0_57089_14202)">
<circle cx="16" cy="16" r="16" fill="#4FABE4"/>
<path d="M22.7847 9.09982C23.513 8.76931 24.2159 9.27485 23.9379 10.3894L21.2226 23.1846C21.0331 24.0939 20.4835 24.3114 19.7224 23.8915L15.586 20.8353C14.6144 21.7799 13.7443 22.6259 13.5978 22.7693C13.3673 22.9944 13.1838 23.183 12.77 23.183C12.2339 23.183 12.325 22.9805 12.1401 22.47L10.6185 17.805L6.64195 16.5639C5.75852 16.2932 5.75207 15.6862 6.8403 15.2496L22.7847 9.09982ZM11.2426 17.5199L12.753 22.1505L13.0519 18.9631L20.7267 12.0385C21.0636 11.7394 20.6533 11.5935 20.2059 11.8649L11.2426 17.5199Z" fill="white"/>
</g>
<defs>
<clipPath id="clip0_57089_14202">
<rect width="32" height="32" fill="white"/>
</clipPath>
</defs>
</svg>
