<svg width="32" height="32" viewBox="0 0 32 32" fill="none" xmlns="http://www.w3.org/2000/svg">
<circle cx="16" cy="16" r="16" fill="black"/>
<path d="M17.4508 16.2611C17.4508 19.1668 15.1113 21.5225 12.2253 21.5225C9.33931 21.5225 7 19.1675 7 16.2611C7 13.3547 9.33949 11 12.2253 11C15.1111 11 17.4508 13.3555 17.4508 16.2611ZM23.1832 16.2611C23.1832 18.9965 22.0134 21.2137 20.5704 21.2137C19.1275 21.2137 17.9577 18.9958 17.9577 16.2611C17.9577 13.5265 19.1275 11.3086 20.5704 11.3086C22.0134 11.3086 23.1832 13.5265 23.1832 16.2611ZM25.5278 16.2611C25.5278 18.7119 25.1163 20.6985 24.6089 20.6985C24.1014 20.6985 23.6899 18.7112 23.6899 16.2611C23.6899 13.8111 24.1014 11.8238 24.6091 11.8238C25.1167 11.8238 25.5278 13.8106 25.5278 16.2611Z" fill="white"/>
</svg>
