<svg width="32" height="32" viewBox="0 0 32 32" fill="none" xmlns="http://www.w3.org/2000/svg">
<g clip-path="url(#clip0_57095_14246)">
<circle cx="16" cy="16" r="15" fill="white"/>
<path d="M13.6629 18.7799L18.9183 16.2734C19.0764 16.198 19.0791 15.9739 18.9229 15.8947L13.6675 13.2316C13.5272 13.1604 13.3612 13.2624 13.3612 13.4198V18.5894C13.3612 18.7446 13.5229 18.8467 13.6629 18.7799Z" fill="#F70000"/>
<path d="M32 16C32 24.8389 24.8389 32 16 32C7.16114 32 0 24.8389 0 16C0 7.16114 7.16114 0 16 0C24.8389 0 32 7.16114 32 16ZM10.3819 9.20018C8.17743 9.20018 6.39036 10.9873 6.39036 13.1917V18.8085C6.39036 21.0129 8.17743 22.8 10.3819 22.8H21.6178C23.8222 22.8 25.6093 21.0129 25.6093 18.8085V13.1917C25.6093 10.9873 23.8222 9.20018 21.6178 9.20018H10.3819Z" fill="#F70000"/>
</g>
<defs>
<clipPath id="clip0_57095_14246">
<rect width="32" height="32" fill="white"/>
</clipPath>
</defs>
</svg>
