<svg width="32" height="32" viewBox="0 0 32 32" fill="none" xmlns="http://www.w3.org/2000/svg">
<g clip-path="url(#clip0_57095_14236)">
<circle cx="16" cy="16" r="15" fill="white"/>
<path d="M13.136 16C13.136 17.577 14.4229 18.8639 15.9999 18.8639C17.5768 18.8639 18.8637 17.577 18.8637 16C18.8637 14.4231 17.5768 13.1362 15.9999 13.1362C14.4229 13.1362 13.136 14.4231 13.136 16Z" fill="#FE0878"/>
<path d="M22.0499 22.05C22.3528 21.7493 22.5419 21.4571 22.6987 21.0661C23.0849 20.0942 23.0642 17.9734 23.0509 16.602C23.0487 16.3787 23.0467 16.1754 23.0467 16C23.0467 15.8243 23.0487 15.6202 23.0509 15.3963C23.0643 14.0243 23.085 11.9033 22.7008 10.9319C22.544 10.5409 22.3549 10.2508 22.052 9.9479C21.7512 9.64497 21.459 9.45591 21.068 9.29908C20.0966 8.91494 17.9758 8.93562 16.6039 8.949C16.3799 8.95119 16.1757 8.95318 15.9999 8.95318C15.824 8.95318 15.62 8.95119 15.396 8.949C14.0241 8.93562 11.9031 8.91494 10.9317 9.29908C10.5407 9.45591 10.2506 9.64712 9.94771 9.9479C9.64478 10.2487 9.45572 10.5409 9.29888 10.9319C8.91475 11.9033 8.93543 14.0241 8.94881 15.396C8.95099 15.62 8.95298 15.8242 8.95298 16C8.95298 16.1759 8.95099 16.38 8.94881 16.604C8.93543 17.9756 8.91475 20.095 9.29888 21.0682C9.45572 21.4592 9.64478 21.7493 9.94771 22.0522C10.2485 22.3551 10.5407 22.5442 10.9317 22.701C11.9031 23.0852 14.0239 23.0645 15.3958 23.0511C15.6198 23.0489 15.8241 23.0469 15.9999 23.0469C16.1752 23.0469 16.3785 23.0489 16.6017 23.0511C17.9732 23.0644 20.094 23.085 21.0659 22.6989C21.4569 22.542 21.7469 22.353 22.0499 22.05ZM11.5934 16C11.5934 13.5616 13.5614 11.5936 15.9999 11.5936C18.4383 11.5936 20.4063 13.5616 20.4063 16C20.4063 18.4385 18.4383 20.4065 15.9999 20.4065C13.5614 20.4065 11.5934 18.4385 11.5934 16ZM19.5577 11.4153C19.5577 10.846 20.0174 10.3862 20.5868 10.3862C21.1561 10.3862 21.6137 10.8438 21.6159 11.4153C21.6159 11.9868 21.1561 12.4444 20.5868 12.4444C20.0174 12.4444 19.5577 11.9846 19.5577 11.4153Z" fill="#FE0878"/>
<path d="M32 16C32 24.8389 24.8389 32 16 32C7.16114 32 0 24.8389 0 16C0 7.16114 7.16114 0 16 0C24.8389 0 32 7.16114 32 16ZM24.5896 15.5662C24.5908 14.5272 24.5919 13.4944 24.5335 12.4551C24.4669 11.0801 24.1532 9.85982 23.1477 8.85435C22.1401 7.84673 20.9219 7.53521 19.5469 7.46861C18.5057 7.41013 17.4728 7.41128 16.435 7.41243C16.2908 7.41259 16.1465 7.41275 16.002 7.41275C15.8576 7.41275 15.7124 7.41259 15.5682 7.41243C14.5291 7.41128 13.4964 7.41014 12.4571 7.46861C11.0821 7.53521 9.86177 7.84888 8.8563 8.85435C7.84869 9.86197 7.53716 11.0801 7.47056 12.4551C7.41209 13.4963 7.41323 14.5293 7.41438 15.567C7.41454 15.7113 7.4147 15.8556 7.4147 16C7.4147 16.1445 7.41454 16.2888 7.41438 16.4331C7.41323 17.4712 7.41209 18.5056 7.47056 19.545C7.53716 20.92 7.85083 22.1403 8.8563 23.1457C9.86392 24.1534 11.0821 24.4649 12.4571 24.5315C13.4983 24.59 14.5313 24.5888 15.569 24.5877C15.7133 24.5875 15.8576 24.5873 16.002 24.5873C16.1467 24.5873 16.2915 24.5875 16.4359 24.5877C17.475 24.5888 18.5077 24.59 19.5469 24.5315C20.9219 24.4649 22.1422 24.1512 23.1477 23.1457C24.1553 22.1381 24.4669 20.92 24.5335 19.545C24.5928 18.5228 24.5913 17.507 24.5898 16.4851C24.5896 16.3236 24.5893 16.1619 24.5893 16C24.5893 15.8553 24.5895 15.7107 24.5896 15.5662Z" fill="#FE0878"/>
</g>
<defs>
<clipPath id="clip0_57095_14236">
<rect width="32" height="32" fill="white"/>
</clipPath>
</defs>
</svg>
