<svg width="40" height="40" viewBox="0 0 40 40" fill="none" xmlns="http://www.w3.org/2000/svg">
<path fill-rule="evenodd" clip-rule="evenodd" d="M10.4684 12.7025L4 3H15L19.1786 9.26791C18.8931 9.35737 18.6294 9.50858 18.4095 9.72837L16.5148 12.5731H11.2773C11.0111 12.5739 10.7361 12.6193 10.4684 12.7025ZM28.6203 12.5695L35 3H24L19.8879 9.1682C20.5645 9.17736 21.2633 9.46118 21.7486 9.94637L23.4933 12.5695H28.6203Z" fill="#0EAD98"/>
<path d="M34.1755 22.351L31.3441 19.5741V16.0718C31.3405 14.8246 31.7123 12.5731 30.4718 12.5695H23.4933L21.7486 9.94637C20.8692 9.06722 19.289 8.84921 18.4095 9.72837L16.5148 12.5731H11.2773C10.0332 12.5767 8.59961 13.5559 8.59603 14.8031V19.3883L5.82537 22.3545C4.94949 23.2373 4.94949 24.6668 5.82537 25.5495L8.59603 28.5551V33.1402C8.59961 34.3875 9.16089 35.331 10.405 35.3345H15.6389L18.406 38.1721C19.2854 39.0513 20.7119 39.0513 21.5913 38.1721L24.362 35.3345H28.7236C29.9677 35.331 31.3369 33.9551 31.3405 32.7078V28.3299L34.1719 25.5495C35.0514 24.6632 35.0514 23.2373 34.1755 22.351ZM20.0219 30.8459L12.0245 19.3847H17.7374L20.0004 26.2107L22.3063 19.3847H28.0193L20.0219 30.8459Z" fill="#B7EAE3"/>
</svg>
