<svg width="41" height="40" viewBox="0 0 41 40" fill="none" xmlns="http://www.w3.org/2000/svg">
<g clip-path="url(#clip0_6137_18952)">
<path d="M33.1337 27.4835L15.1229 10.2832L12.8931 12.6181L12.9023 12.6269L10.7358 14.8954L10.7375 14.8971L8.64258 17.0907L8.64911 17.097L6.47461 19.3739L20.5896 32.8537C21.2344 33.4695 22.2562 33.446 22.8719 32.8012C23.3663 32.2836 23.4486 31.523 23.1283 30.9245L24.0781 31.8317C24.7229 32.4474 25.7447 32.4239 26.3605 31.7791C26.7836 31.3361 26.9048 30.715 26.7301 30.1699L27.136 30.5576C27.7808 31.1733 28.8026 31.1498 29.4183 30.505C29.9039 29.9966 29.9919 29.2538 29.6914 28.6604L30.9038 29.8184C31.5486 30.4341 32.5704 30.4106 33.1862 29.7658C33.8019 29.1211 33.7784 28.0992 33.1337 27.4835Z" fill="#B7EAE3"/>
<rect x="10.5811" y="20.5977" width="3.08183" height="4.73685" rx="1.54092" transform="rotate(49.254 10.5811 20.5977)" fill="#D9D9D9"/>
<rect x="15.4619" y="24.6582" width="3.15533" height="4.73685" rx="1.57767" transform="rotate(49.254 15.4619 24.6582)" fill="#D9D9D9"/>
<rect x="17.106" y="27.3975" width="3.15533" height="4.05464" rx="1.57767" transform="rotate(49.254 17.106 27.3975)" fill="#D9D9D9"/>
<rect x="13.2793" y="22.3135" width="3.29481" height="5.57304" rx="1.6474" transform="rotate(49.254 13.2793 22.3135)" fill="#D9D9D9"/>
<path d="M12.1305 21.2968C11.4068 20.4569 10.1393 20.3626 9.29938 21.0862L7.66594 22.4935C6.82601 23.2171 6.73173 24.4846 7.45536 25.3246C7.86863 25.8043 8.4593 26.0407 9.04641 26.0206C8.95835 26.608 9.1171 27.229 9.53525 27.7143C10.1264 28.4005 11.0624 28.614 11.8652 28.3193C11.912 28.7133 12.0726 29.098 12.351 29.4212C12.7867 29.9268 13.4141 30.1696 14.0327 30.1345C13.9871 30.681 14.1524 31.2448 14.5387 31.6931C15.302 32.5792 16.6391 32.6786 17.5252 31.9153L18.4397 31.1274C19.3258 30.364 19.4252 29.0269 18.6619 28.1408C18.3284 27.7538 17.8855 27.5168 17.4185 27.4363C17.6678 26.7563 17.551 25.965 17.0447 25.3774C16.6298 24.8958 16.0409 24.6527 15.4514 24.6609C15.514 24.0976 15.3512 23.5108 14.9521 23.0476C14.3581 22.3581 13.4162 22.1459 12.6108 22.4467C12.5782 22.0365 12.4197 21.6325 12.1305 21.2968Z" fill="#0EAD98"/>
<rect x="0.5" y="15.8535" width="15.6234" height="6.00665" rx="1" transform="rotate(-47.4861 0.5 15.8535)" fill="#B7EAE3"/>
<rect x="36.2168" y="20.5977" width="14.756" height="6.00665" rx="1" transform="rotate(-128.435 36.2168 20.5977)" fill="#0EAD98"/>
<path d="M24.5497 12.1148C26.2017 12.1433 27.4793 11.6504 27.9116 11.4005L34.0119 19.2528C33.7253 19.4931 33.0411 20.1365 32.597 20.788C32.153 21.4395 30.8582 23.609 30.7488 23.9383L20.985 14.638C20.7525 14.827 19.2311 16.1164 18.1394 17.1563C17.48 17.7845 16.0504 18.9036 14.6784 19.4484C13.3063 19.9932 12.5312 19.1766 12.6402 18.6469C12.7493 18.1173 13.1933 16.2213 14.6781 14.1734C15.788 12.6426 16.9018 11.9905 18.654 11.7448C20.4062 11.4991 22.4846 12.0793 24.5497 12.1148Z" fill="#0EAD98"/>
</g>
<defs>
<clipPath id="clip0_6137_18952">
<rect width="40" height="40" fill="white" transform="translate(0.5)"/>
</clipPath>
</defs>
</svg>
